<svg version="1.1" viewBox="0.0 0.0 639.7926509186352 640.6220472440945" fill="none" stroke="none" stroke-linecap="square" stroke-miterlimit="10" xmlns:xlink="http://www.w3.org/1999/xlink" xmlns="http://www.w3.org/2000/svg"><clipPath id="p.0"><path d="m0 0l639.79266 0l0 640.6221l-639.79266 0l0 -640.6221z" clip-rule="nonzero"/></clipPath><g clip-path="url(#p.0)"><path fill="#000000" fill-opacity="0.0" d="m0 0l639.79266 0l0 640.6221l-639.79266 0z" fill-rule="evenodd"/><path fill="#ffffff" d="m24.895014 320.3175l0 0c0 -162.91966 132.07951 -294.99213 295.00787 -294.99213l0 0c78.24094 0 153.27734 31.07944 208.60205 86.4012c55.324707 55.321754 86.40582 130.35416 86.40582 208.59094l0 0c0 162.91965 -132.07953 294.99213 -295.00787 294.99213l0 0c-162.92836 0 -295.00787 -132.07248 -295.00787 -294.99213z" fill-rule="evenodd"/><path fill="#000000" d="m107.9895 211.07349l0 0c0 -54.697937 44.34848 -99.039375 99.055115 -99.039375l0 0c26.271057 0 51.466125 10.434471 70.04254 29.007957c18.576447 18.573486 29.012573 43.76454 29.012573 70.03142l0 0c0 54.697937 -44.34848 99.03937 -99.055115 99.03937l0 0c-54.706635 0 -99.055115 -44.34143 -99.055115 -99.03937z" fill-rule="evenodd"/><path fill="#000000" d="m107.9895 429.54855l0 0c0 -54.697937 44.34848 -99.03937 99.055115 -99.03937l0 0c26.271057 0 51.466125 10.434479 70.04254 29.007935c18.576447 18.573486 29.012573 43.764557 29.012573 70.03143l0 0c0 54.697937 -44.34848 99.03934 -99.055115 99.03934l0 0c-54.706635 0 -99.055115 -44.3414 -99.055115 -99.03934z" fill-rule="evenodd"/><path fill="#000000" d="m333.70078 211.08005l0 0c0 -54.697937 44.34851 -99.039375 99.055145 -99.039375l0 0c26.271027 0 51.466095 10.434471 70.04254 29.007957c18.576416 18.573486 29.012573 43.76454 29.012573 70.03142l0 0c0 54.697937 -44.34851 99.03937 -99.055115 99.03937l0 0c-54.706635 0 -99.055145 -44.34143 -99.055145 -99.03937z" fill-rule="evenodd"/><path fill="#000000" d="m333.70078 429.5551l0 0c0 -54.697937 44.34851 -99.03937 99.055145 -99.03937l0 0c26.271027 0 51.466095 10.434479 70.04254 29.007935c18.576416 18.573486 29.012573 43.764557 29.012573 70.03143l0 0c0 54.697937 -44.34851 99.03937 -99.055115 99.03937l0 0c-54.706635 0 -99.055145 -44.34143 -99.055145 -99.03937z" fill-rule="evenodd"/></g></svg>